<svg xmlns="http://www.w3.org/2000/svg" viewBox="0 0 169.929 217.139"><defs><style>.a{fill:#fff;}</style></defs><g transform="translate(-52.175 0)"><g transform="translate(52.175 0.001)"><path class="a" d="M207.8,15.554a3.611,3.611,0,0,0-.721.073,94.547,94.547,0,0,1-68.613-12.16L133.69.535a3.619,3.619,0,0,0-3.786,0L125.13,3.467A94.548,94.548,0,0,1,56.518,15.613a3.62,3.62,0,0,0-4.343,3.558V130.424A80.484,80.484,0,0,0,63.192,171.1,77.493,77.493,0,0,0,99.1,203.13l31.252,13.706a3.617,3.617,0,0,0,2.9,0l31.263-13.706c1.759-.771,3.489-1.607,5.175-2.5a3.622,3.622,0,0,0-3.4-6.4q-2.294,1.216-4.687,2.266l-29.8,13.069L102,196.51a70.318,70.318,0,0,1-32.573-29.069A73.23,73.23,0,0,1,59.413,130.41V23.5A101.812,101.812,0,0,0,128.9,9.622l2.9-1.77,2.9,1.766a101.751,101.751,0,0,0,69.488,13.876V130.409a3.619,3.619,0,0,0,7.238,0V19.17a3.618,3.618,0,0,0-3.626-3.616Z" transform="translate(-52.175 -0.001)"/></g><g transform="translate(66.652 25.241)"><path class="a" d="M149.058,57.723a3.619,3.619,0,0,0-4.89-1.51,2.739,2.739,0,0,0-.275.161,79.26,79.26,0,0,1-55.374,9.377,3.62,3.62,0,0,0-4.343,3.55v86.462a61.322,61.322,0,0,0,9.088,32.088,62.853,62.853,0,0,0,29.5,25.2,3.62,3.62,0,1,0,2.8-6.677,55.639,55.639,0,0,1-26.131-22.305,54.111,54.111,0,0,1-8.02-28.3V73.587a86.386,86.386,0,0,0,56.134-10.973,3.619,3.619,0,0,0,1.511-4.891Z" transform="translate(-84.176 -55.794)"/></g><g transform="translate(157.202 166.515)"><path class="a" d="M347.988,383.576a3.619,3.619,0,0,0-4.734-.012l-17.307,17.307a6.436,6.436,0,0,0-3.7,0l-31.784-31.784a3.619,3.619,0,1,0-5.118,5.118l31.78,31.784a7.149,7.149,0,0,0,6.945,9.088,7.238,7.238,0,0,0,7.238-7.238,7.107,7.107,0,0,0-.271-1.849l17.307-17.307A3.619,3.619,0,0,0,347.988,383.576Z" transform="translate(-284.331 -368.072)"/></g><g transform="translate(91.987 65.134)"><path class="a" d="M236.835,159.511l-14.477-14.477a3.619,3.619,0,0,0-5.118,0l-44.49,44.491-11.918-11.918a3.619,3.619,0,0,0-5.118,0l-14.477,14.477a3.619,3.619,0,0,0,0,5.118l28.953,28.953a3.617,3.617,0,0,0,5.118,0l61.526-61.526a3.619,3.619,0,0,0,0-5.118ZM172.75,218.479l-23.822-23.836,9.345-9.359L170.216,197.2a3.619,3.619,0,0,0,5.118,0L219.8,152.711l9.374,9.359Z" transform="translate(-140.178 -143.975)"/></g></g></svg>