<svg width="57" height="44" viewBox="0 0 57 44" version="1.1" xmlns="http://www.w3.org/2000/svg" xmlns:xlink="http://www.w3.org/1999/xlink">
<title>&#226;&#128;&#156;</title>
<desc>Created using Figma</desc>
<g id="Canvas" transform="translate(3642 -985)">
<g id="&#226;&#128;&#156;">
<use xlink:href="#path0_fill" transform="matrix(-1 -1.22465e-16 1.22465e-16 -1 -3582 1062)" fill="#292929"/>
</g>
</g>
<defs>
<path id="path0_fill" d="M 23.4 53.65C 26.8 56.05 28.5 59.45 28.5 63.85C 28.5 67.55 27.3 70.6 24.9 73C 22.5 75.4 19.45 76.6 15.75 76.6C 12.15 76.6 9.1 75.5 6.6 73.3C 4.2 71 3 67.85 3 63.85C 3 60.85 4.15 57.45 6.45 53.65L 18.45 33.7L 31.2 33.7L 23.4 53.65ZM 51.6 53.65C 55 56.05 56.7 59.45 56.7 63.85C 56.7 67.55 55.5 70.6 53.1 73C 50.7 75.4 47.65 76.6 43.95 76.6C 40.35 76.6 37.3 75.5 34.8 73.3C 32.4 71 31.2 67.85 31.2 63.85C 31.2 60.85 32.35 57.45 34.65 53.65L 46.65 33.7L 59.4 33.7L 51.6 53.65Z"/>
</defs>
</svg>
